<svg xmlns="http://www.w3.org/2000/svg" viewBox="0 0 110 30" role="img" aria-labelledby="title" style="height:100%;width:auto;max-width:100%;">
  <title>Redfin</title>
  <path
    d="M 56.8 5.7 c -2 -1.3 -4.8 -1.8 -8.4 -1.8 h -6.9 v 22.9 h 7.1 c 2.5 0 4.7 -0.3 6.5 -1 s 3.2 -1.9 4.2 -3.6 s 1.5 -3.9 1.5 -6.7 c 0 -2.4 -0.3 -4.4 -0.9 -6 c -0.9 -1.7 -1.8 -3 -3.1 -3.8 Z m -1.9 13.6 c -0.3 1.1 -0.9 2 -1.7 2.6 c -0.9 0.7 -2.3 1 -4.1 1 h -2.5 V 7.5 h 2.1 c 2 0 3.6 0.3 4.6 1.1 c 0.7 0.6 1.3 1.3 1.6 2.4 s 0.5 2.4 0.5 4 c 0 1.8 -0.1 3.2 -0.5 4.3 Z m 9 7.4 h 5.2 V 17 h 6.1 v -3.8 h -6.1 V 7.6 h 9.3 V 3.8 H 63.9 v 22.9 Z m 17.9 0 H 87 V 3.8 h -5.2 v 22.9 Z M 110 3.8 h -5.3 V 17 L 95 3.8 h -4.2 v 22.9 h 5.3 V 13.2 l 9.6 13.5 h 4.3 V 3.8 Z M 21.7 27.6 c -0.4 -0.2 -0.9 -0.5 -2.1 -2.5 l -2.4 -3.9 l -2.8 -4.6 l -0.2 -0.4 c 0.1 0 0.3 -0.1 0.4 -0.1 c 3.2 -1.1 5.1 -4 5.1 -8.2 c 0 -2.1 -0.8 -4 -2.4 -5.4 c -0.2 -0.2 -0.5 -0.4 -0.7 -0.6 C 14.4 0.5 11.5 0 7.7 0 H 0.4 C 0 0 -0.1 0.3 0.1 0.5 s 0.4 0.5 0.4 1.3 v 23 c -0.1 0.9 -0.3 1.2 -0.4 1.4 c -0.2 0.2 -0.1 0.5 0.4 0.5 h 5.3 V 17 h 2.4 l 1.7 2.9 l 2.1 3.6 l 1 1.8 c 1.2 2 2.3 3.3 4.2 3.6 c 0.2 0 1.2 0.2 1.6 0.2 h 0.4 c 0.8 0 1.6 -0.3 2.1 -0.5 c 0 0 0.1 -0.1 0.2 -0.1 c 0.7 -0.4 0.5 -0.8 0.2 -0.9 Z M 9.2 13.2 H 5.8 V 3.8 h 3.4 c 1.7 0 3 0.2 3.9 1.1 c 0.4 0.3 0.6 0.7 0.8 1.2 c 0.2 0.6 0.4 1.3 0.4 2.2 c 0 1.2 -0.1 4.9 -5.1 4.9 Z M 28.5 17 h 6.1 v -3.8 h -6.1 V 7.6 h 9.3 V 3.8 H 23.3 v 22.9 h 14.5 v -3.8 h -9.3 V 17 Z"
  />
</svg>
